<svg id="Layer_1" data-name="Layer 1" xmlns="http://www.w3.org/2000/svg" viewBox="0 0 600 600"><defs><style>.cls-1{fill:#ffd89e;}.cls-2{fill:#f9f9f9;}.cls-3{fill:#b0e7f8;}.cls-4{fill:#ffc15a;}</style></defs><title>Artboard 18 copy 3</title><path class="cls-1" d="M449.69,341.62l-267-84.41,15.07-47.68,267,84.42Z"/><path class="cls-2" d="M198.32,141.53a49.93,49.93,0,0,0,7,44.17l-7.54,23.83,47.33,15a33.48,33.48,0,0,0,45.51,14.39l91.71,29a40,40,0,0,0,50.43,15.94l32,10.12,0-.07A65,65,0,0,0,501.1,169.09a65.92,65.92,0,0,0-9.47-2.23,65,65,0,0,0-67.27-60,90,90,0,0,0-160.53,3c-.91-.35-1.82-.68-2.76-1A50,50,0,0,0,198.32,141.53Z"/><path class="cls-3" d="M131.54,220.05a40,40,0,0,0-50.2,26.08L55.61,327.51A60,60,0,0,0,79.05,395.2l49.4,33.63L142,385.92l-39.48-26.87a20,20,0,0,1-7.82-22.57l24.76-78.29,57.21,18.08,12.06-38.13Z"/><path class="cls-3" d="M126.89,501.75l228.83,72.36,34.15-41.64-267-84.42Z"/><path class="cls-4" d="M389.39,532.32l-267-84.42,60.3-190.69,267,84.41Z"/><path class="cls-1" d="M455.72,322.55l-25.47,80.56c-3.86,12.19,2.51,26.52,14.4,31.24a25,25,0,0,0,33.12-15.68C485.91,392.92,455.72,322.55,455.72,322.55Z"/><path d="M71.81,243.11,46.35,323.62A71.37,71.37,0,0,0,45.86,366a69.62,69.62,0,0,0,27.56,37.43l43.25,29.44-3.79,12s0,.05,0,.08a10.21,10.21,0,0,0-.41,3.84v0l4,53.5a10,10,0,0,0,7,8.8L352.23,583.5A10,10,0,0,0,363,580.3l34-41.49h0a8.89,8.89,0,0,0,1.76-3l31.32-99.07a35,35,0,0,0,57.21-15.07c4.06-12.85,1.46-33.69-8-63.72-5-15.82-10.44-29.67-13-35.89l5.27-16.67a75,75,0,0,0,32.48-145.85c-1.15-.36-2.3-.7-3.47-1a75.09,75.09,0,0,0-70.46-61.66A100,100,0,0,0,258.87,98a60.07,60.07,0,0,0-70.08,40.51,59.42,59.42,0,0,0,5.58,48.68l-12.14,38.4-47.68-15.08A50,50,0,0,0,71.81,243.11ZM238.4,232.86a43.5,43.5,0,0,0,52.92,16.73L376,276.35a50,50,0,0,0,57.18,18.09l19.08,6-9,28.6-247.9-78.38,9-28.61ZM382.87,519.77,135,441.38l54.27-171.62,247.9,78.38ZM136.53,370.09l-28.37-19.31a9.92,9.92,0,0,1-3.9-11.28L126,270.73l38.14,12.06Zm297.79-111a10,10,0,1,0-17.24,10.18,73.57,73.57,0,0,0,5.12,7.55,30.08,30.08,0,0,1-14.49-.89c-15.35-4.86-24.44-22.29-19.58-37.68a10,10,0,0,0-7.8-12.88c-5.11-.93-9.95,2.46-11.46,7.43A49.73,49.73,0,0,0,367,252.54L310.4,234.65a43.69,43.69,0,0,0,6.12-12.23,10,10,0,0,0-7.7-12.86,10.25,10.25,0,0,0-11.48,7.1,23.54,23.54,0,0,1-29.42,15.05,23.54,23.54,0,0,1-15.34-29.51,10,10,0,0,0-7.76-12.87,10.22,10.22,0,0,0-11.45,7.25,43.5,43.5,0,0,0-1.87,13.12L210.34,203l4.53-14.31a10,10,0,0,0-1.4-8.84,40,40,0,0,1,44.62-61.46c.72.23,1.43.48,2.14.75l.08,0h.05a40,40,0,0,1,14.58,9.68,10,10,0,1,0,14.48-13.82,59.52,59.52,0,0,0-11.7-9.46,80.51,80.51,0,0,1,91.39-32.91,80.07,80.07,0,0,1,52.2,100.48,10,10,0,0,0,7.89,12.89,10.24,10.24,0,0,0,11.32-7.26,99.16,99.16,0,0,0-.27-60.4c1.12.28,2.23.58,3.33.93a54.83,54.83,0,0,1,38.29,48.28s0,.06,0,.1a54.77,54.77,0,0,1-2.41,20.7,10,10,0,0,0,7.86,12.88,10.22,10.22,0,0,0,11.34-7.22,75.09,75.09,0,0,0,2.95-14.27,55.1,55.1,0,0,1,32.57,67.9,56.83,56.83,0,0,1-2.34,6.13C513.91,293.59,456.59,296.83,434.32,259.08Zm22.31,93.75c8.31,24.07,15.24,51.31,11.6,62.82a15,15,0,0,1-20.46,9.16,15.26,15.26,0,0,1-8-18.59ZM134,462l238.81,75.51-20.49,25L136.36,494.26ZM90.88,249.14a30,30,0,0,1,37.64-19.56l47.68,15.08-6,19.07-47.68-15.08a10,10,0,0,0-12.55,6.52l-24.75,78.3a29.8,29.8,0,0,0,11.72,33.84L130.24,390,123,413,84.68,386.93a49.68,49.68,0,0,1-19.54-56.4Z"/><path d="M380.9,361.82a10,10,0,1,0,12.55-6.52A10,10,0,0,0,380.9,361.82Z"/><path d="M382.32,393.85a10,10,0,0,0-14,6l-24.12,76.27a10,10,0,0,0,8,12.9,10.21,10.21,0,0,0,11.17-7.18l23.92-75.65A10.21,10.21,0,0,0,382.32,393.85Z"/><path d="M337.14,337.61a10,10,0,0,0-13.93,6L287,458a10,10,0,0,0,8,12.9,10.2,10.2,0,0,0,11.2-7.16l36-113.83A10.19,10.19,0,0,0,337.14,337.61Z"/><path d="M279.94,319.52a10,10,0,0,0-13.93,6L229.83,439.9a10,10,0,0,0,8,12.9,10.2,10.2,0,0,0,11.2-7.16l36-113.83A10.2,10.2,0,0,0,279.94,319.52Z"/><path d="M209.28,307.55A10,10,0,1,0,221.82,301,10,10,0,0,0,209.28,307.55Z"/><path d="M210.7,339.58a10,10,0,0,0-14,6l-24.12,76.27a10,10,0,0,0,8,12.9,10.21,10.21,0,0,0,11.17-7.18l23.92-75.65A10.22,10.22,0,0,0,210.7,339.58Z"/><path d="M334.92,190.16a10,10,0,0,0,4.69,13.34,9.83,9.83,0,0,0,1.32.53,10,10,0,1,0-6-13.87Z"/><path d="M382.9,123.32a10,10,0,0,0-6.52-12.55,48.62,48.62,0,0,0-37.86,3.8c-17.44,9.36-29.49,28.57-26.85,50a10,10,0,1,0,19.85-2.44,29.75,29.75,0,0,1,1.18-12.7,30.11,30.11,0,0,1,37.64-19.56A10,10,0,0,0,382.9,123.32Z"/></svg>