<svg id="Layer_1" data-name="Layer 1" xmlns="http://www.w3.org/2000/svg" viewBox="0 0 1920 1080"><defs><style>.cls-1{fill:#ccc;}.cls-2{fill:#f31e1e;}.cls-3{font-size:170px;fill:#fff;font-family:AureaUltra-Roman, AureaUltra;letter-spacing:0.12em;}.cls-4{letter-spacing:0.15em;}.cls-5{letter-spacing:0.14em;}.cls-6{letter-spacing:0.13em;}.cls-7{letter-spacing:0.14em;}.cls-8{letter-spacing:0.13em;}.cls-9{fill:#ffd89e;}.cls-10{fill:#f5737f;}.cls-11{fill:#d8ec84;}.cls-12{fill:#ffcb7c;}</style></defs><title>Artboard 1 copy 14</title><path class="cls-1" d="M1663.06,473.07l9-13.82c17.68-29.39,49.31-52.11,97.39-63.06,42.88-9.36,70.36-19.36,87.6-41.94,19.54-25.59,16.5-54.91-14.73-79.55-18.07-13.79-42.74-23.09-62.56-23.13l12.09-40.81c25.75.6,60.48,14.4,87.08,34.7,57.71,44,56.61,99.6,27.5,137.74-26.05,34.13-63.89,44.16-109.81,54.38-42,9.24-66.88,25.19-84.91,51.94L1702.2,503Zm-64.67,61.83c14.17-18.57,36.68-22,54.24-8.64s19.65,35.65,5.48,54.22c-13.41,17.56-35.29,22.3-53.86,8.13C1586.69,575.2,1585,552.46,1598.39,534.9Z"/><path class="cls-1" d="M741.8,709.78l-7.72-27.41c-18-56.51-11.38-123.53,29.28-198.48,36.8-66.38,55.2-113.49,45.55-161.66C798,267.64,756.43,238.1,688.78,250.54c-38.54,7.72-78.78,29.14-101.47,54.84l-39.2-62.29c30.18-32.77,87.76-62.12,144.5-73.48,123.1-24.66,194,40.19,210.28,121.55,14.58,72.79-15.59,133.39-54.75,204.7C812.2,561,804.5,611.49,818.65,665.44l6.65,27.61Zm6.47,154.58c-7.94-39.61,13.25-72.8,50.72-80.31s68.73,15.18,76.66,54.79c7.51,37.47-11.32,71.3-50.93,79.23C787.25,925.58,755.77,901.82,748.27,864.36Z"/><path class="cls-1" d="M1571.05,409.87l-9-18.81c-20-38.54-23.51-87.7-3.45-146.8,18.33-52.43,25.77-88.69,12.85-122.25-14.64-38-48.27-54.18-95.53-36.84-26.84,10.34-53.22,30.77-66.4,52.12l-36-40.08c17.71-27.37,55.62-55.67,95.14-70.89,85.74-33,144.9,5,166.73,61.65,19.52,50.7,5.26,98.15-14.16,154.43-17.88,51.41-17.17,88.81-.29,126l8.21,19.09Zm23.8,110.7c-10.63-27.58.55-54.15,26.65-64.2s51.45,2.45,62.08,30c10.05,26.1.65,52.84-26.94,63.46C1630.55,559.91,1604.9,546.67,1594.85,520.57Z"/><rect class="cls-2" x="2" y="897" width="1920" height="183"/><path class="cls-1" d="M974,442.08l2.07-20.73c2.85-43.32,25.28-87.2,73-127.39,42.82-35.39,68-62.56,74.26-98,7.15-40.12-13.26-71.35-62.68-81-28.32-5.05-61.46-1.21-83.79,10.23l-10-52.92c29.32-14.25,76.4-18.85,118.09-11.43,90.46,16.12,121.41,79.26,110.76,139-9.52,53.49-46.28,86.71-92,124.82-41.89,34.74-60.65,67.1-65.43,107.64L1035.36,453ZM937.08,549.13c5.18-29.11,28.49-46.06,56-41.15s42.76,28.72,37.58,57.82c-4.91,27.53-26.78,45.55-55.89,40.36C947.27,601.26,932.17,576.66,937.08,549.13Z"/><path class="cls-1" d="M1119.25,613.77l7.49-13.68c14.63-29,42.93-52.73,87.6-66.48,39.87-11.87,65.15-23.25,79.85-45.81,16.66-25.57,11.72-53.07-19.53-74.15-18.05-11.76-42-18.82-60.76-17.46l8.55-39.42c24.38-1.25,58.18,9.35,84.75,26.66,57.66,37.57,60.53,90.15,35.7,128.26-22.21,34.09-57.27,46.24-100,59.13-39,11.69-61.44,28.53-76.6,55.07l-8,13.37Zm-56.77,63c12.09-18.55,33.11-23.41,50.66-12s21.08,32.31,9,50.86c-11.44,17.54-31.79,23.57-50.34,11.48C1054.26,715.7,1051,694.32,1062.48,676.77Z"/><path class="cls-1" d="M349.57,681.87l-1.27-16.41c-3.78-34.09,7.58-71.34,39.15-109.22,28.41-33.46,44.19-58.08,44.19-86.49,0-32.2-20.2-53.66-60-54.29-22.72,0-48,7.57-63.76,19.57l-15.15-39.78C313.58,380.1,349.57,370,383,370c72.6,0,105.43,44.82,105.43,92.8,0,42.93-24,73.87-54.3,109.85-27.77,32.83-37.88,60.61-36,92.81l.63,16.41Zm-13.89,88.39c0-23.36,15.78-39.78,37.88-39.78s37.25,16.42,37.25,39.78c0,22.09-14.53,39.14-37.88,39.14C350.83,809.4,335.68,792.35,335.68,770.26Z"/><path class="cls-1" d="M124.66,487l-1.6-20.77c-4.79-43.15,9.59-90.29,49.54-138.23,36-42.35,55.93-73.51,55.93-109.46,0-40.75-25.57-67.92-75.91-68.72-28.76,0-60.72,9.59-80.7,24.77L52.75,124.26c26.37-19.18,71.91-32,114.25-32,91.89,0,133.44,56.72,133.44,117.45,0,54.33-30.36,93.48-68.72,139-35.15,41.55-47.94,76.71-45.54,117.46L187,487ZM107.08,598.86c0-29.56,20-50.34,47.94-50.34s47.14,20.78,47.14,50.34c0,28-18.38,49.54-47.94,49.54C126.26,648.4,107.08,626.82,107.08,598.86Z"/><path class="cls-1" d="M583.12,356.66l-7.32-14.74c-16.3-30.19-19.73-69-4.67-115.93,13.79-41.67,19.19-70.41,8.54-96.75-12.07-29.85-38.85-42.17-76-27.84-21.07,8.52-41.64,25-51.77,42l-29-31.19C436.61,90.4,466.19,67.54,497.2,55c67.31-27.22,114.55,2,132.54,46.5,16.1,39.8,5.46,77.47-9.15,122.19-13.44,40.85-12.39,70.39,1.44,99.53l6.74,15Zm20.26,87.15c-8.75-21.66-.28-42.79,20.21-51.08S664.27,394,673,415.64c8.29,20.48,1.22,41.73-20.44,50.49C632.11,474.41,611.67,464.29,603.38,443.81Z"/><text class="cls-3" transform="translate(141.8 1031.07)">L<tspan class="cls-4" x="135.15" y="0">u</tspan><tspan x="285.43" y="0">n</tspan><tspan class="cls-4" x="430.95" y="0">ch </tspan><tspan class="cls-5" x="765.17" y="0">S</tspan><tspan class="cls-4" x="884.84" y="0">p</tspan><tspan class="cls-6" x="1029.51" y="0">o</tspan><tspan class="cls-7" x="1156.84" y="0">n</tspan><tspan class="cls-4" x="1305.76" y="0">s</tspan><tspan class="cls-8" x="1413.71" y="0">o</tspan><tspan class="cls-4" x="1541.04" y="0">r</tspan></text><path class="cls-9" d="M1636.35,878.76l-415.19-106a37.43,37.43,0,0,1-24.89-51.48,647.55,647.55,0,0,1,330.24-330.08A37.42,37.42,0,0,1,1578,416.14l105.74,415.28c7.29,28.64-18.73,54.65-47.37,47.34Z"/><circle class="cls-10" cx="1567.12" cy="761.94" r="38.99"/><circle class="cls-10" cx="1542.65" cy="611.8" r="38.99"/><circle class="cls-10" cx="1416.98" cy="737.47" r="38.99"/><circle class="cls-11" cx="1444.96" cy="640.03" r="20"/><path class="cls-12" d="M1591.76,470.24,1578,416.14a37.42,37.42,0,0,0-51.47-24.92,647.61,647.61,0,0,0-330.24,330.09,37.43,37.43,0,0,0,24.89,51.48l54.12,13.81,1.93-5,.08-.23a504.51,504.51,0,0,1,309.28-309.13"/><path d="M1693.41,828.94,1587.67,413.67a47.42,47.42,0,0,0-65.2-31.59,656.63,656.63,0,0,0-165.6,105.23A10,10,0,0,0,1370,502.4a636.39,636.39,0,0,1,160.57-102,27.42,27.42,0,0,1,37.73,18.23l11.58,45.46A514.33,514.33,0,0,0,1269.08,774.7l-45.45-11.6a27.42,27.42,0,0,1-18.21-37.74,636.52,636.52,0,0,1,102-160.37,10,10,0,1,0-15.08-13.13,656.8,656.8,0,0,0-105.18,165.4,47.42,47.42,0,0,0,31.56,65.22l415.19,106a49.82,49.82,0,0,0,12.29,1.55,49,49,0,0,0,47.24-61.06Zm-27,32.56a28.71,28.71,0,0,1-27.62,7.57l-350.28-89.4c50.24-138.48,157.79-246,296.28-296.14L1674,833.88a28.69,28.69,0,0,1-7.59,27.62Z"/><path d="M1567.12,712.94a49,49,0,1,0,34.64,14.35A48.71,48.71,0,0,0,1567.12,712.94Zm20.5,69.5a29,29,0,1,1,0-41,29,29,0,0,1,0,41Z"/><path d="M1542.65,660.79A49,49,0,1,0,1508,646.44,48.63,48.63,0,0,0,1542.65,660.79Zm-20.5-69.49a29,29,0,1,1,0,41,28.76,28.76,0,0,1,0-41Z"/><path d="M1417,688.48a49,49,0,1,0,34.64,14.35A48.63,48.63,0,0,0,1417,688.48Zm20.5,69.49a29,29,0,1,1,8.5-20.5A28.76,28.76,0,0,1,1437.48,758Z"/><path d="M1466.17,618.82a30,30,0,1,0,0,42.42A30,30,0,0,0,1466.17,618.82ZM1452,647.1A10,10,0,1,1,1455,640,9.93,9.93,0,0,1,1452,647.1Z"/><path d="M1503.65,688.73a10,10,0,1,0,7.07,2.93A10.05,10.05,0,0,0,1503.65,688.73Z"/><path d="M1627.26,812.33a10,10,0,1,0,7.07,2.93A10.08,10.08,0,0,0,1627.26,812.33Z"/><path d="M1584.19,674.65a10,10,0,1,0,2.93-7.07A10.08,10.08,0,0,0,1584.19,674.65Z"/><path d="M1479.58,779.26a10,10,0,1,0,7.07,2.93A10,10,0,0,0,1479.58,779.26Z"/><path d="M1330.53,535.53a10,10,0,1,0-7.07-2.92A10,10,0,0,0,1330.53,535.53Z"/></svg>