<svg id="Layer_1" data-name="Layer 1" xmlns="http://www.w3.org/2000/svg" viewBox="0 0 600 600"><defs><style>.cls-1{fill:#ef8829;}.cls-2{fill:#84bd93;}.cls-3{fill:#ce593f;}.cls-4{fill:#fdd44b;}.cls-5{fill:#3f2d20;}</style></defs><title>Artboard 18 copy</title><path class="cls-1" d="M228.82,319.16C223.34,312.9,219,308,208,305.59s-17,.37-24.59,3.83a74.81,74.81,0,0,1-13.35,5,21.24,21.24,0,0,0,2.68.78l66.58,14.27A73.79,73.79,0,0,1,228.82,319.16Z"/><path class="cls-1" d="M342.26,343.47c-5.48-6.25-9.81-11.2-20.86-13.56s-17,.36-24.58,3.83A74.69,74.69,0,0,1,283,338.88l69.68,14.93A73.26,73.26,0,0,1,342.26,343.47Z"/><path class="cls-1" d="M434.84,354.22c-11-2.37-17,.37-24.59,3.83a73.71,73.71,0,0,1-13.78,5.14L463,377.46a21.88,21.88,0,0,0,2.75.38,74.93,74.93,0,0,1-10.1-10C450.21,361.53,445.88,356.59,434.84,354.22Z"/><path class="cls-2" d="M472,335.53,200.56,277.34a21.41,21.41,0,0,0-24.43,13.9c-.24.11-.52.35-.76.46,8.63-3.94,19.34-8.8,36.66-5.09s25.08,12.63,31.32,19.76c5.48,6.26,9.81,11.22,20.86,13.59s17-.36,24.58-3.82c8.62-3.95,19.35-8.86,36.66-5.15s25.09,12.59,31.34,19.73c5.48,6.25,9.8,11.2,20.85,13.57s17-.37,24.58-3.83c8.63-3.95,19.36-8.87,36.67-5.16S464,347.9,470.22,355c4.53,5.18,8.29,9.44,15.69,12.11a22.81,22.81,0,0,0,2.32-6.23A21.4,21.4,0,0,0,472,335.53Z"/><path class="cls-3" d="M474.2,398.58c.36.24.69.5,1,.77C474.89,399.08,474.56,398.82,474.2,398.58Z"/><path class="cls-3" d="M476.67,400.58c.32.31.64.64.95,1C477.31,401.22,477,400.89,476.67,400.58Z"/><path class="cls-3" d="M480.33,405.65c.2.43.44.85.62,1.3C480.77,406.5,480.54,406.08,480.33,405.65Z"/><path class="cls-3" d="M481.62,409.24a16.58,16.58,0,0,1,.35,2.11A18.57,18.57,0,0,0,481.62,409.24Z"/><path class="cls-3" d="M471.36,397c.34.15.64.33,1,.49C472,397.37,471.7,397.18,471.36,397Z"/><path class="cls-3" d="M479.53,404.12c-.25-.41-.53-.79-.81-1.17C479,403.33,479.28,403.71,479.53,404.12Z"/><path class="cls-3" d="M139.1,348c0-.36-.06-.72,0-1.09C139,347.3,139.09,347.65,139.1,348Z"/><path class="cls-3" d="M147.76,362.47a16,16,0,0,1-1.82-1.21A16.9,16.9,0,0,0,147.76,362.47Z"/><path class="cls-3" d="M144.17,359.74c-.35-.35-.63-.74-.94-1.11C143.54,359,143.82,359.39,144.17,359.74Z"/><path class="cls-3" d="M482.28,411.81c-1.26-.61-2.4-2-4.67,1.66l-307.8-66c-8.67-6-18.27,1-20.31,10.5a21.35,21.35,0,0,0-.47,4.74,12.39,12.39,0,0,1,3.71,3l307.79,66c9.76,1,19.28-5.62,21.32-15.14A21.78,21.78,0,0,0,482.28,411.81Z"/><path class="cls-3" d="M141.42,356.06c.24.41.47.83.74,1.22C141.89,356.89,141.66,356.47,141.42,356.06Z"/><path class="cls-3" d="M139.57,351.41c-.1-.42-.2-.83-.27-1.26C139.36,350.58,139.47,351,139.57,351.41Z"/><path class="cls-3" d="M140.61,354.49c-.19-.42-.35-.84-.51-1.28C140.26,353.65,140.42,354.07,140.61,354.49Z"/><path class="cls-4" d="M481.73,458.21l-340.3-72.93c-21.43-4.6-24.15.25-26.1,9.35-3.36,15.66,4.41,29.85,17.12,32.58l340.29,72.93c12.7,2.72,25.6-7,29-22.7C503.65,468.34,503.16,462.8,481.73,458.21Z"/><path class="cls-4" d="M152.93,235.91c.14.23.26.46.41.68C153.19,236.37,153.07,236.14,152.93,235.91Z"/><path class="cls-4" d="M494.3,211.59l1.57,1.64Z"/><path class="cls-4" d="M148.32,220c0-.34,0-.67,0-1C148.32,219.31,148.32,219.64,148.32,220Z"/><path class="cls-4" d="M148.44,217c0-.3.05-.6.09-.9C148.49,216.41,148.47,216.71,148.44,217Z"/><path class="cls-4" d="M513.38,235.25c-.36-.58-.7-1.15-1.08-1.73C512.68,234.09,513,234.67,513.38,235.25Z"/><path class="cls-4" d="M515.43,238.57c.45.76.87,1.53,1.29,2.29C516.3,240.1,515.88,239.33,515.43,238.57Z"/><path class="cls-4" d="M503.35,221.56l1.68,2Z"/><path class="cls-4" d="M148.47,222.81c0-.31-.05-.62-.07-.92C148.42,222.19,148.44,222.5,148.47,222.81Z"/><path class="cls-4" d="M507.48,226.76c.48.64,1,1.27,1.44,1.91C508.46,228,508,227.4,507.48,226.76Z"/><path class="cls-4" d="M499,216.54c.59.64,1.17,1.3,1.74,2C500.14,217.84,499.57,217.18,499,216.54Z"/><path class="cls-4" d="M157.44,241.61c-.28-.29-.56-.57-.83-.86C156.88,241,157.16,241.32,157.44,241.61Z"/><path class="cls-4" d="M148.86,225.55l-.06-.37Z"/><path class="cls-4" d="M161.63,245.13c-.28-.2-.55-.42-.83-.63C161.08,244.71,161.35,244.93,161.63,245.13Z"/><path class="cls-4" d="M517.36,243.81a166.91,166.91,0,0,0-13.3-13.92c-31.36-29.3-76.85-51.49-128.1-62.47S274.12,158,233.51,171.9c-38.91,13.3-63.68,36.21-69.75,64.53a26.15,26.15,0,0,0-.12,10.42c2.73,1.58,5.92,1.92,9.17,2.62l317.08,68a30.85,30.85,0,0,0,36.76-24.25C529.75,277,526.36,260.71,517.36,243.81ZM239.34,223a9.65,9.65,0,1,1,4.2-6.09A9.75,9.75,0,0,1,239.34,223Zm66.5-35.5a9.64,9.64,0,1,1,4.2-6.08A9.7,9.7,0,0,1,305.84,187.52ZM346.37,246a9.66,9.66,0,1,1-10.49-16.22,9.65,9.65,0,0,1,14.68,10.12A9.78,9.78,0,0,1,346.37,246Zm60.89-36.7a9.65,9.65,0,1,1,4.2-6.09A9.75,9.75,0,0,1,407.26,209.26Zm46.11,59.63a9.65,9.65,0,1,1,4.2-6.09A9.74,9.74,0,0,1,453.37,268.89Z"/><path class="cls-4" d="M159.46,243.46c-.3-.25-.6-.52-.9-.79C158.86,242.94,159.16,243.21,159.46,243.46Z"/><path class="cls-4" d="M149.78,229.06c-.09-.29-.2-.58-.28-.88C149.58,228.48,149.69,228.77,149.78,229.06Z"/><path class="cls-4" d="M150.78,231.76c-.14-.33-.28-.66-.41-1C150.5,231.1,150.64,231.43,150.78,231.76Z"/><path class="cls-4" d="M155.53,239.51c-.23-.27-.47-.54-.68-.81C155.06,239,155.3,239.24,155.53,239.51Z"/><path class="cls-4" d="M152,234.25c-.16-.31-.32-.63-.47-.95C151.64,233.62,151.8,233.94,152,234.25Z"/><path class="cls-5" d="M236.13,205.47a9.67,9.67,0,1,0,6.07,4.2A9.68,9.68,0,0,0,236.13,205.47Z"/><path class="cls-5" d="M343.14,228.41a9.65,9.65,0,1,0-4,18.87,9.65,9.65,0,1,0,4-18.87Z"/><path class="cls-5" d="M450.16,251.34a9.67,9.67,0,1,0,6.07,4.2A9.75,9.75,0,0,0,450.16,251.34Z"/><path class="cls-5" d="M302.63,170a9.65,9.65,0,0,0-10.12,14.68A9.65,9.65,0,1,0,302.63,170Z"/><path class="cls-5" d="M404,191.71a9.67,9.67,0,1,0,6.08,4.2A9.73,9.73,0,0,0,404,191.71Z"/><path class="cls-5" d="M491.86,435.38a36.89,36.89,0,0,0,0-51.21,40.35,40.35,0,0,0,13.31-50.52,50.26,50.26,0,0,0,40.88-39c7.55-35.21-7.68-72.71-42.87-105.59-33.87-31.66-82.61-55.54-137.23-67.25s-108.86-9.9-152.74,5.1c-45.58,15.57-74.83,43.54-82.38,78.74A50.27,50.27,0,0,0,152.19,258a40.33,40.33,0,0,0-8.56,51.53,36.88,36.88,0,0,0-21,46.73c-11.89.5-25.29,5.69-29.68,26.15-5.34,24.94,8.37,49.11,30.56,53.86L458.26,508c22.2,4.76,44.61-11.66,50-36.61C512.6,450.94,502.5,440.7,491.86,435.38Zm-24.75,63.55-347.9-74.56c-12.26-2.63-19.6-17.06-16.36-32.17,1.88-8.77,4.66-14.19,25.34-9.76L476.09,457c20.68,4.44,21,10.52,19.11,19.29C492,491.4,479.36,501.56,467.11,498.93ZM463,377.46l-66.57-14.27a74.41,74.41,0,0,0,13.78-5.14c7.56-3.46,13.54-6.2,24.59-3.83s15.37,7.31,20.85,13.57a74.93,74.93,0,0,0,10.1,10A21.88,21.88,0,0,1,463,377.46ZM283,338.88a74.69,74.69,0,0,0,13.78-5.14c7.56-3.47,13.53-6.2,24.58-3.83s15.38,7.31,20.86,13.56a73.26,73.26,0,0,0,10.46,10.34ZM172.7,315.23a21.24,21.24,0,0,1-2.68-.78,74.81,74.81,0,0,0,13.35-5c7.56-3.46,13.54-6.2,24.59-3.83s15.38,7.31,20.86,13.57a73.79,73.79,0,0,0,10.46,10.34L172.7,315.23ZM486,366.63c-7.41-2.66-11.16-6.93-15.69-12.1-6.25-7.14-14-16-31.33-19.73S411,336,402.33,340c-7.56,3.46-13.53,6.2-24.58,3.83s-15.38-7.31-20.85-13.57c-6.25-7.13-14-16-31.34-19.72s-28,1.2-36.66,5.15c-7.56,3.46-13.54,6.2-24.58,3.83s-15.38-7.31-20.86-13.57c-6.25-7.14-14-16-31.34-19.73s-28,1.21-36.67,5.15c-6.25,2.87-11.43,5.22-19.28,4.62a21.75,21.75,0,0,1,3.12-13.26c4.7-7.81,14.41-11.09,23.32-9.18L471,335.3c8.9,1.91,16.45,8.83,17.6,17.85A21.54,21.54,0,0,1,486,366.63Zm3.87-49.2-317.08-68a30.79,30.79,0,0,1-23.86-36c5.83-28.61,30.68-51.78,69.88-65.17,40.61-13.88,91.2-15.47,142.45-4.49S458,177,489.38,206.25c30.28,28.29,43.45,59.61,37,88.1A30.8,30.8,0,0,1,489.89,317.43ZM173.28,337.28l280.19,60.05a16.08,16.08,0,1,1-6.74,31.45l-280.19-60a16.08,16.08,0,1,1,6.74-31.45Z"/></svg>