<svg id="Layer_1" data-name="Layer 1" xmlns="http://www.w3.org/2000/svg" viewBox="0 0 600 600"><defs><style>.cls-1{fill:#ffd89e;}.cls-2{fill:#f5737f;}.cls-3{fill:#d8ec84;}.cls-4{fill:#ffcb7c;}</style></defs><title>Artboard 18 copy 2</title><path class="cls-1" d="M504.85,545.26l-415.19-106a37.43,37.43,0,0,1-24.89-51.48A647.55,647.55,0,0,1,395,57.73a37.42,37.42,0,0,1,51.47,24.91L552.22,497.92c7.29,28.64-18.73,54.65-47.37,47.34Z"/><circle class="cls-2" cx="435.62" cy="428.44" r="38.99"/><circle class="cls-2" cx="411.15" cy="278.3" r="38.99"/><circle class="cls-2" cx="285.48" cy="403.97" r="38.99"/><circle class="cls-3" cx="313.46" cy="306.53" r="20"/><path class="cls-4" d="M460.26,136.74l-13.78-54.1A37.42,37.42,0,0,0,395,57.72,647.61,647.61,0,0,0,64.77,387.81a37.43,37.43,0,0,0,24.89,51.48l54.12,13.81,1.93-5,.08-.23A504.51,504.51,0,0,1,455.07,138.78"/><path d="M561.91,495.44,456.17,80.17A47.42,47.42,0,0,0,391,48.58a656.63,656.63,0,0,0-165.6,105.23,10,10,0,0,0,13.12,15.09,636.39,636.39,0,0,1,160.57-102A27.42,27.42,0,0,1,436.79,85.1l11.58,45.46A514.33,514.33,0,0,0,137.58,441.2L92.13,429.6a27.42,27.42,0,0,1-18.21-37.74,636.52,636.52,0,0,1,102-160.37,10,10,0,1,0-15.08-13.13A656.8,656.8,0,0,0,55.63,383.76,47.42,47.42,0,0,0,87.19,449L502.38,555a49.82,49.82,0,0,0,12.29,1.55,49,49,0,0,0,47.24-61.06Zm-27,32.56a28.71,28.71,0,0,1-27.62,7.57L157,446.17C207.28,307.69,314.83,200.2,453.32,150l89.21,350.35A28.69,28.69,0,0,1,534.94,528Z"/><path d="M435.62,379.44a49,49,0,1,0,34.64,14.35A48.71,48.71,0,0,0,435.62,379.44Zm20.5,69.5a29,29,0,1,1,0-41,29,29,0,0,1,0,41Z"/><path d="M411.15,327.29a49,49,0,1,0-34.64-14.35A48.63,48.63,0,0,0,411.15,327.29Zm-20.5-69.49a29,29,0,1,1,0,41,28.76,28.76,0,0,1,0-41Z"/><path d="M285.48,355a49,49,0,1,0,34.64,14.35A48.63,48.63,0,0,0,285.48,355ZM306,424.47a29,29,0,1,1,8.5-20.5A28.76,28.76,0,0,1,306,424.47Z"/><path d="M334.67,285.32a30,30,0,1,0,0,42.42A30,30,0,0,0,334.67,285.32ZM320.53,313.6a10,10,0,1,1,2.93-7.07A9.93,9.93,0,0,1,320.53,313.6Z"/><path d="M372.15,355.23a10,10,0,1,0,7.07,2.93A10.05,10.05,0,0,0,372.15,355.23Z"/><path d="M495.76,478.83a10,10,0,1,0,7.07,2.93A10.08,10.08,0,0,0,495.76,478.83Z"/><path d="M452.69,341.15a10,10,0,1,0,2.93-7.07A10.08,10.08,0,0,0,452.69,341.15Z"/><path d="M348.08,445.76a10,10,0,1,0,7.07,2.93A10,10,0,0,0,348.08,445.76Z"/><path d="M199,202a10,10,0,1,0-7.07-2.92A10,10,0,0,0,199,202Z"/></svg>