<svg id="Layer_1" data-name="Layer 1" xmlns="http://www.w3.org/2000/svg" viewBox="0 0 1920 1080"><defs><style>.cls-1{fill:#ccc;}.cls-2{fill:#f31e1e;}.cls-3{font-size:170px;fill:#fff;font-family:AureaUltra-Roman, AureaUltra;letter-spacing:0.12em;}.cls-4{letter-spacing:0.15em;}.cls-5{letter-spacing:0.13em;}.cls-6{letter-spacing:0.14em;}.cls-7{letter-spacing:0.14em;}.cls-8{fill:#ffbe90;}.cls-8,.cls-9{fill-rule:evenodd;}.cls-9{fill:#88df8e;}</style></defs><title>Artboard 1 copy 13</title><path class="cls-1" d="M1663.06,473.07l9-13.82c17.68-29.39,49.31-52.11,97.39-63.06,42.88-9.36,70.36-19.36,87.6-41.94,19.54-25.59,16.5-54.91-14.73-79.55-18.07-13.79-42.74-23.09-62.56-23.13l12.09-40.81c25.75.6,60.48,14.4,87.08,34.7,57.71,44,56.61,99.6,27.5,137.74-26.05,34.13-63.89,44.16-109.81,54.38-42,9.24-66.88,25.19-84.91,51.94L1702.2,503Zm-64.67,61.83c14.17-18.57,36.68-22,54.24-8.64s19.65,35.65,5.48,54.22c-13.41,17.56-35.29,22.3-53.86,8.13C1586.69,575.2,1585,552.46,1598.39,534.9Z"/><path class="cls-1" d="M741.8,709.78l-7.72-27.41c-18-56.51-11.38-123.53,29.28-198.48,36.8-66.38,55.2-113.49,45.55-161.66C798,267.64,756.43,238.1,688.78,250.54c-38.54,7.72-78.78,29.14-101.47,54.84l-39.2-62.29c30.18-32.77,87.76-62.12,144.5-73.48,123.1-24.66,194,40.19,210.28,121.55,14.58,72.79-15.59,133.39-54.75,204.7C812.2,561,804.5,611.49,818.65,665.44l6.65,27.61Zm6.47,154.58c-7.94-39.61,13.25-72.8,50.72-80.31s68.73,15.18,76.66,54.79c7.51,37.47-11.32,71.3-50.93,79.23C787.25,925.58,755.77,901.82,748.27,864.36Z"/><path class="cls-1" d="M1571.05,409.87l-9-18.81c-20-38.54-23.51-87.7-3.45-146.8,18.33-52.43,25.77-88.69,12.85-122.25-14.64-38-48.27-54.18-95.53-36.84-26.84,10.34-53.22,30.77-66.4,52.12l-36-40.08c17.71-27.37,55.62-55.67,95.14-70.89,85.74-33,144.9,5,166.73,61.65,19.52,50.7,5.26,98.15-14.16,154.43-17.88,51.41-17.17,88.81-.29,126l8.21,19.09Zm23.8,110.7c-10.63-27.58.55-54.15,26.65-64.2s51.45,2.45,62.08,30c10.05,26.1.65,52.84-26.94,63.46C1630.55,559.91,1604.9,546.67,1594.85,520.57Z"/><rect class="cls-2" x="2" y="897" width="1920" height="183"/><path class="cls-1" d="M974,442.08l2.07-20.73c2.85-43.32,25.28-87.2,73-127.39,42.82-35.39,68-62.56,74.26-98,7.15-40.12-13.26-71.35-62.68-81-28.32-5.05-61.46-1.21-83.79,10.23l-10-52.92c29.32-14.25,76.4-18.85,118.09-11.43,90.46,16.12,121.41,79.26,110.76,139-9.52,53.49-46.28,86.71-92,124.82-41.89,34.74-60.65,67.1-65.43,107.64L1035.36,453ZM937.08,549.13c5.18-29.11,28.49-46.06,56-41.15s42.76,28.72,37.58,57.82c-4.91,27.53-26.78,45.55-55.89,40.36C947.27,601.26,932.17,576.66,937.08,549.13Z"/><path class="cls-1" d="M1119.25,613.77l7.49-13.68c14.63-29,42.93-52.73,87.6-66.48,39.87-11.87,65.15-23.25,79.85-45.81,16.66-25.57,11.72-53.07-19.53-74.15-18.05-11.76-42-18.82-60.76-17.46l8.55-39.42c24.38-1.25,58.18,9.35,84.75,26.66,57.66,37.57,60.53,90.15,35.7,128.26-22.21,34.09-57.27,46.24-100,59.13-39,11.69-61.44,28.53-76.6,55.07l-8,13.37Zm-56.77,63c12.09-18.55,33.11-23.41,50.66-12s21.08,32.31,9,50.86c-11.44,17.54-31.79,23.57-50.34,11.48C1054.26,715.7,1051,694.32,1062.48,676.77Z"/><path class="cls-1" d="M349.57,681.87l-1.27-16.41c-3.78-34.09,7.58-71.34,39.15-109.22,28.41-33.46,44.19-58.08,44.19-86.49,0-32.2-20.2-53.66-60-54.29-22.72,0-48,7.57-63.76,19.57l-15.15-39.78C313.58,380.1,349.57,370,383,370c72.6,0,105.43,44.82,105.43,92.8,0,42.93-24,73.87-54.3,109.85-27.77,32.83-37.88,60.61-36,92.81l.63,16.41Zm-13.89,88.39c0-23.36,15.78-39.78,37.88-39.78s37.25,16.42,37.25,39.78c0,22.09-14.53,39.14-37.88,39.14C350.83,809.4,335.68,792.35,335.68,770.26Z"/><path class="cls-1" d="M124.66,487l-1.6-20.77c-4.79-43.15,9.59-90.29,49.54-138.23,36-42.35,55.93-73.51,55.93-109.46,0-40.75-25.57-67.92-75.91-68.72-28.76,0-60.72,9.59-80.7,24.77L52.75,124.26c26.37-19.18,71.91-32,114.25-32,91.89,0,133.44,56.72,133.44,117.45,0,54.33-30.36,93.48-68.72,139-35.15,41.55-47.94,76.71-45.54,117.46L187,487ZM107.08,598.86c0-29.56,20-50.34,47.94-50.34s47.14,20.78,47.14,50.34c0,28-18.38,49.54-47.94,49.54C126.26,648.4,107.08,626.82,107.08,598.86Z"/><path class="cls-1" d="M583.12,356.66l-7.32-14.74c-16.3-30.19-19.73-69-4.67-115.93,13.79-41.67,19.19-70.41,8.54-96.75-12.07-29.85-38.85-42.17-76-27.84-21.07,8.52-41.64,25-51.77,42l-29-31.19C436.61,90.4,466.19,67.54,497.2,55c67.31-27.22,114.55,2,132.54,46.5,16.1,39.8,5.46,77.47-9.15,122.19-13.44,40.85-12.39,70.39,1.44,99.53l6.74,15Zm20.26,87.15c-8.75-21.66-.28-42.79,20.21-51.08S664.27,394,673,415.64c8.29,20.48,1.22,41.73-20.44,50.49C632.11,474.41,611.67,464.29,603.38,443.81Z"/><text class="cls-3" transform="translate(136.36 1031.07)">C<tspan class="cls-4" x="136.85" y="0">o</tspan><tspan class="cls-5" x="267.58" y="0">f</tspan><tspan x="364.82" y="0">f</tspan><tspan class="cls-4" x="460.36" y="0">ee </tspan><tspan class="cls-6" x="776.04" y="0">S</tspan><tspan class="cls-4" x="895.72" y="0">p</tspan><tspan class="cls-5" x="1040.39" y="0">o</tspan><tspan class="cls-7" x="1167.72" y="0">n</tspan><tspan class="cls-4" x="1316.64" y="0">s</tspan><tspan class="cls-5" x="1424.59" y="0">o</tspan><tspan class="cls-4" x="1551.92" y="0">r</tspan></text><path class="cls-8" d="M1395.62,479.07c-11.17.29-179.16,0-199.79,0s-43.54,17.76-43.54,49.95H1495.9c15.28-72.31-39.8-87.45-61.69-86.62C1434.21,481,1406.8,478.78,1395.62,479.07Z"/><path class="cls-9" d="M1495.83,529H1121.45c0,188.25,63.19,224.85,93.6,339.94h220.73c7.43-28.13,16.82-51.58,26.78-73.69,7-15.62,14.33-30.58,21.42-46.07,18.87-41.2,36.21-86.09,42.7-157,1.42-15.54,2.32-32.32,2.6-50.59.07-4.11.1-8.31.1-12.57Z"/><path class="cls-9" d="M1529.36,541.49c-.28,18.27-1.18,35.06-2.61,50.6,11.65-7.74,26.92-11.61,42-11.26,57.5,1.33,57.45,49.91,38.47,92.09-25.63,57-73.8,73-123.13,76.26-7.09,15.49-14.4,30.45-21.43,46.08,69.94.42,145.22-13.49,185.83-103.74,33.61-74.68,11.58-153.76-78.85-155.86A123.25,123.25,0,0,0,1529.36,541.49Z"/><path d="M1658.8,569.16c-12.37-19.61-37.84-43.24-89-44.42a134.16,134.16,0,0,0-29.49,2.65,11,11,0,0,0-10.88-9.41h-20.61c2.8-24.82-2.39-45.22-15.49-60.78-18.09-21.47-45.95-26.33-59.55-25.81a11,11,0,0,0-10.6,11c0,25.33-13,25.47-25.47,25.61l-201.83,0c-24.12,0-49,18.45-53.74,49.94h-20.7a11,11,0,0,0-11,11c0,126.47,28.41,186.77,55.89,245.08,14.38,30.54,28,59.39,38.09,97.7a11,11,0,0,0,10.65,8.2h220.76a11,11,0,0,0,10.65-8.2,434.07,434.07,0,0,1,23.29-65.51c66.54-.55,145.92-15.22,188.67-110.2C1679.38,649.5,1679.52,602.05,1658.8,569.16Zm-121.64,29.57a65.38,65.38,0,0,1,31.29-6.89c16.78.39,28.22,5.26,34,14.46,8.25,13.1,6.25,36.31-5.36,62.1-17.52,38.93-48,60.77-95.27,67.82C1517.37,700,1531.09,658.4,1537.16,598.73Zm-109.79,259.2H1223.46c-10.4-36.34-24-65.23-37.2-93.23-26.8-56.89-52.16-110.72-53.7-224.65H1152a11,11,0,0,0,11-11c0-27,19.06-39.08,32.6-39.08l202.56,0c10.65-.12,41.06-.46,46.52-36,10,1.69,23.07,6.45,32.19,17.28,9.45,11.22,12.86,26.9,10.17,46.7H1251.57a11.2,11.2,0,0,0-11,8.5,11,11,0,0,0,10.75,13.57h267c0,.43-1.15,35.49-2.48,50.41a10.1,10.1,0,0,0-.15,1.64c-6.32,68.47-22.92,111.56-41.63,152.38l-.11.24c-3.06,6.69-6.18,13.31-9.32,20-4,8.57-8.11,17.22-12.13,26.14l0,.12C1443.31,811.16,1434.57,832.76,1427.37,857.93Zm211-170.93c-35.47,78.82-98.33,95.1-158.49,97,1.54-3.31,3.11-6.62,4.68-10q3.38-7.17,6.76-14.43c27.05-2.42,49.48-8.57,68.38-18.76,25.35-13.66,44.7-35,57.49-63.44,14.87-33,16.29-63.25,3.91-82.89-6.87-10.9-21.49-24-52.16-24.74a89.68,89.68,0,0,0-29.8,4.26q.71-11.66,1-24.18a112.66,112.66,0,0,1,29.13-3.22c32.77.75,57.29,12.56,70.89,34.15C1657,607.46,1656.32,647.15,1638.39,687Z"/><path d="M1314.84,372.75a11,11,0,1,0,21,6.82c5.12-15.74,2.35-24.72.12-31.93-1.74-5.63-2.79-9-.12-17.21a11,11,0,1,0-21-6.82c-4.83,14.82-2.14,23.53,0,30.53C1316.63,359.86,1317.8,363.65,1314.84,372.75Z"/><path d="M1384.73,401.53a11,11,0,0,0,21,6.82c5.12-15.75,2.35-24.72.12-31.94-1.74-5.63-2.79-9-.12-17.21a11,11,0,0,0-21-6.82c-4.82,14.83-2.13,23.54,0,30.53C1386.53,388.64,1387.7,392.43,1384.73,401.53Z"/><path d="M1244.94,401.53a11,11,0,1,0,21,6.82c5.13-15.75,2.35-24.72.13-31.94-1.74-5.63-2.79-9-.13-17.21a11,11,0,0,0-21-6.82c-4.82,14.83-2.14,23.53,0,30.53C1246.73,388.64,1247.9,392.43,1244.94,401.53Z"/><path d="M1402.83,813.78h-60.37a11.24,11.24,0,0,0-11.24,9.37,11,11,0,0,0,10.91,12.7h60.38a11.25,11.25,0,0,0,11.24-9.38A11,11,0,0,0,1402.83,813.78Z"/><path d="M1292.62,813.78h-.31a10.5,10.5,0,0,0-9.7,6.24,11.11,11.11,0,0,0,14.08,15.06,10.46,10.46,0,0,0,6.3-6.43A11.06,11.06,0,0,0,1292.62,813.78Z"/><path d="M1201.86,518h-.32a10.48,10.48,0,0,0-9.69,6.25,11.11,11.11,0,0,0,14.07,15,10.43,10.43,0,0,0,6.3-6.43A11.06,11.06,0,0,0,1201.86,518Z"/></svg>