<svg id="Layer_1" data-name="Layer 1" xmlns="http://www.w3.org/2000/svg" viewBox="0 0 600 600"><defs><style>.cls-1{fill:#ffbe90;}.cls-1,.cls-2{fill-rule:evenodd;}.cls-2{fill:#88df8e;}</style></defs><title>Artboard 18</title><path class="cls-1" d="M324.15,167.57c-9.53.25-152.79,0-170.39,0s-37.13,15.15-37.13,42.6h293c13-61.67-33.94-74.58-52.61-73.87C357.06,169.2,333.68,167.33,324.15,167.57Z"/><path class="cls-2" d="M409.61,210.17H90.32c0,160.55,53.9,191.76,79.83,289.92H358.4c6.34-24,14.35-44,22.84-62.85,6-13.33,12.22-26.08,18.26-39.29,16.1-35.13,30.88-73.42,36.42-133.92,1.21-13.25,2-27.56,2.22-43.13.06-3.52.09-7.09.09-10.73Z"/><path class="cls-2" d="M438.21,220.8c-.24,15.59-1,29.91-2.22,43.16,9.93-6.6,22.95-9.9,35.77-9.6,49,1.13,49,42.56,32.81,78.54-21.86,48.57-62.94,62.27-105,65-6.05,13.21-12.29,26-18.28,39.3,59.65.36,123.85-11.5,158.48-88.47,28.66-63.69,9.88-131.14-67.25-132.92A105.11,105.11,0,0,0,438.21,220.8Z"/><path d="M548.59,244.4c-10.54-16.72-32.26-36.87-75.9-37.88a114.3,114.3,0,0,0-25.15,2.26,9.37,9.37,0,0,0-9.27-8H420.69c2.39-21.17-2-38.57-13.21-51.84-15.43-18.31-39.19-22.45-50.79-22a9.38,9.38,0,0,0-9,9.38c0,21.61-11.05,21.73-21.73,21.85l-172.12,0c-20.58,0-41.79,15.73-45.84,42.59H90.32a9.4,9.4,0,0,0-9.4,9.41c0,107.86,24.23,159.28,47.66,209,12.27,26,23.86,50.64,32.49,83.32a9.39,9.39,0,0,0,9.08,7H358.42a9.38,9.38,0,0,0,9.08-7,371.8,371.8,0,0,1,19.87-55.88c56.75-.47,124.45-13,160.9-94C566.15,312.92,566.27,272.45,548.59,244.4ZM444.86,269.62a55.82,55.82,0,0,1,26.68-5.87c14.31.33,24.08,4.48,29,12.33,7,11.17,5.32,31-4.57,53-14.94,33.2-41,51.82-81.25,57.84C428,356,439.69,320.52,444.86,269.62ZM351.22,490.67H177.32c-8.86-31-20.47-55.62-31.72-79.5-22.86-48.52-44.49-94.43-45.79-191.59h16.53a9.37,9.37,0,0,0,9.39-9.36c0-23,16.25-33.32,27.8-33.32l172.75,0c9.08-.1,35-.39,39.68-30.68,8.5,1.44,19.67,5.5,27.45,14.74,8.06,9.57,11,22.94,8.67,39.83H201.29a9.57,9.57,0,0,0-9.42,7.24,9.43,9.43,0,0,0,9.18,11.58H428.74c0,.37-1,30.26-2.12,43a9.45,9.45,0,0,0-.12,1.4c-5.39,58.39-19.55,95.14-35.5,130a2,2,0,0,0-.1.21c-2.61,5.7-5.27,11.35-7.95,17-3.44,7.3-6.92,14.69-10.34,22.29l0,.1A415.66,415.66,0,0,0,351.22,490.67Zm180-145.77C500.94,412.13,447.33,426,396,427.66q2-4.23,4-8.49c1.92-4.08,3.84-8.17,5.76-12.31,23.07-2.06,42.2-7.31,58.32-16,21.62-11.65,38.12-29.85,49-54.11,12.68-28.17,13.89-53.93,3.33-70.69-5.85-9.29-18.33-20.49-44.48-21.09a76.52,76.52,0,0,0-25.42,3.63q.62-9.93.89-20.62a95.89,95.89,0,0,1,24.85-2.75c27.95.65,48.85,10.72,60.45,29.13C547.07,277.07,546.49,310.92,531.19,344.9Z"/><path d="M255.25,76.9a9.4,9.4,0,0,0,6,11.84,9.27,9.27,0,0,0,2.91.47,9.39,9.39,0,0,0,8.93-6.49c4.37-13.43,2-21.09.11-27.24-1.48-4.8-2.38-7.7-.11-14.68A9.4,9.4,0,0,0,255.25,35c-4.11,12.64-1.82,20.07,0,26C256.78,65.91,257.78,69.14,255.25,76.9Z"/><path d="M314.87,101.45a9.38,9.38,0,0,0,6,11.83,9.27,9.27,0,0,0,2.91.47,9.39,9.39,0,0,0,8.93-6.49c4.37-13.43,2-21.08.11-27.24-1.48-4.8-2.38-7.7-.11-14.67a9.39,9.39,0,1,0-17.86-5.82c-4.12,12.64-1.82,20.07,0,26C316.4,90.45,317.39,93.68,314.87,101.45Z"/><path d="M195.64,101.45a9.39,9.39,0,0,0,6,11.83,9.18,9.18,0,0,0,2.91.47,9.39,9.39,0,0,0,8.93-6.49c4.37-13.43,2-21.08.11-27.24-1.49-4.8-2.38-7.7-.11-14.67a9.4,9.4,0,1,0-17.87-5.82c-4.11,12.64-1.82,20.07,0,26C197.17,90.45,198.17,93.68,195.64,101.45Z"/><path d="M330.3,453H278.81a9.61,9.61,0,0,0-9.59,8,9.42,9.42,0,0,0,9.31,10.83H330a9.59,9.59,0,0,0,9.59-8A9.42,9.42,0,0,0,330.3,453Z"/><path d="M236.31,453h-.26a9,9,0,0,0-8.28,5.33,9.48,9.48,0,0,0,12,12.84,8.94,8.94,0,0,0,5.37-5.48A9.44,9.44,0,0,0,236.31,453Z"/><path d="M158.9,200.76h-.27a9,9,0,0,0-8.27,5.33,9.47,9.47,0,0,0,12,12.83,8.91,8.91,0,0,0,5.38-5.48A9.43,9.43,0,0,0,158.9,200.76Z"/></svg>