<svg id="Capa_1" enable-background="new 0 0 512.075 512.075" height="512" viewBox="0 0 512.075 512.075" width="512" xmlns="http://www.w3.org/2000/svg"><path id="XMLID_2551_" d="m453.415 500.83-415.251-105.984c-22.463-5.733-34.272-30.286-24.888-51.486 65.183-147.263 182.995-265.02 330.288-330.134 21.205-9.374 45.754 2.448 51.475 24.916l105.754 415.336c7.295 28.65-18.733 54.663-47.378 47.352z" fill="#ffd89e"/><g fill="#f5737f"><circle id="XMLID_2550_" cx="384.172" cy="383.992" r="38.999"/><circle id="XMLID_2549_" cx="359.702" cy="233.835" r="38.999"/><circle id="XMLID_2546_" cx="234.015" cy="359.522" r="38.999"/></g><circle id="XMLID_2545_" cx="261.998" cy="262.071" fill="#d8ec84" r="20"/><path id="XMLID_2544_" d="m408.817 92.254-13.778-54.112c-5.721-22.468-30.27-34.29-51.475-24.916-147.293 65.114-265.105 182.871-330.288 330.134-9.384 21.2 2.425 45.753 24.888 51.486l54.127 13.815 1.931-4.959.081-.23c50.771-144.715 164.587-258.475 309.325-309.177" fill="#ffcb7c"/><path id="XMLID_464_" d="m510.484 451.011-105.755-415.336c-3.443-13.525-12.615-24.782-25.164-30.884-12.605-6.13-27.202-6.389-40.044-.711-60.213 26.618-115.937 62.028-165.625 105.246-4.167 3.625-4.607 9.941-.982 14.108 3.625 4.168 9.94 4.607 14.107.983 48.178-41.904 102.206-76.237 160.586-102.045 7.45-3.292 15.911-3.146 23.211.405 7.245 3.523 12.541 10.023 14.53 17.833l11.576 45.465c-71.119 25.487-136.845 67.085-190.266 120.48s-95.051 119.101-120.57 190.202l-45.451-11.601c-7.808-1.993-14.305-7.292-17.824-14.539-3.546-7.303-3.689-15.763-.393-23.21 25.809-58.309 60.123-112.271 101.989-160.39 3.625-4.167 3.187-10.483-.98-14.108-4.165-3.624-10.483-3.186-14.107.98-43.181 49.629-78.571 105.285-105.19 165.423-5.684 12.84-5.432 27.436.691 40.043 6.095 12.551 17.347 21.729 30.869 25.181l415.25 105.984c4.093 1.045 8.215 1.556 12.292 1.556 12.766-.001 25.063-5.015 34.418-14.363 12.341-12.335 17.138-29.794 12.832-46.702zm-26.971 32.555c-7.3 7.296-17.625 10.125-27.626 7.575l-350.333-89.416c50.248-138.493 157.811-246.004 296.328-296.182l89.221 350.404c2.546 10-.291 20.325-7.59 27.619z"/><path id="XMLID_467_" d="m384.172 334.992c-13.088 0-25.393 5.097-34.647 14.352s-14.352 21.56-14.352 34.647c0 13.089 5.097 25.394 14.352 34.648 9.553 9.552 22.1 14.328 34.647 14.328s25.096-4.776 34.648-14.328c19.104-19.105 19.104-50.191 0-69.296-9.255-9.254-21.56-14.351-34.648-14.351zm20.505 69.505c-11.307 11.308-29.704 11.307-41.011 0-5.478-5.478-8.494-12.76-8.494-20.506s3.017-15.028 8.494-20.505c5.477-5.478 12.759-8.494 20.505-8.494s15.028 3.017 20.506 8.494c11.307 11.307 11.307 29.705 0 41.011z"/><path id="XMLID_470_" d="m359.702 282.834c13.088 0 25.393-5.097 34.647-14.352s14.352-21.559 14.352-34.647-5.097-25.393-14.352-34.648c-9.255-9.255-21.56-14.352-34.647-14.352s-25.394 5.097-34.648 14.352c-19.104 19.105-19.104 50.19 0 69.295 9.254 9.256 21.559 14.352 34.648 14.352zm-20.506-69.504c5.478-5.478 12.76-8.494 20.506-8.494s15.028 3.016 20.505 8.493c5.478 5.477 8.494 12.759 8.494 20.505s-3.017 15.028-8.494 20.505-12.759 8.494-20.505 8.494-15.028-3.017-20.506-8.494c-11.307-11.305-11.307-29.703 0-41.009z"/><path id="XMLID_1178_" d="m234.015 310.523c-13.089 0-25.394 5.097-34.648 14.352s-14.351 21.56-14.351 34.647 5.097 25.393 14.351 34.647c9.255 9.255 21.56 14.352 34.648 14.352s25.393-5.097 34.647-14.352 14.352-21.56 14.352-34.647-5.097-25.393-14.352-34.647-21.559-14.352-34.647-14.352zm20.505 69.504c-5.477 5.478-12.759 8.494-20.505 8.494s-15.028-3.017-20.506-8.494-8.493-12.759-8.493-20.505 3.016-15.028 8.493-20.505c5.478-5.478 12.76-8.494 20.506-8.494s15.028 3.017 20.505 8.494c5.478 5.477 8.494 12.759 8.494 20.505s-3.016 15.028-8.494 20.505z"/><path id="XMLID_1286_" d="m283.212 240.858c-11.695-11.695-30.728-11.697-42.427 0-11.696 11.697-11.696 30.73 0 42.427 5.849 5.849 13.531 8.772 21.213 8.772 7.683 0 15.365-2.924 21.214-8.772 11.696-11.698 11.696-30.73 0-42.427zm-14.143 28.284c-1.889 1.889-4.399 2.929-7.07 2.929-2.672 0-5.183-1.04-7.071-2.929s-2.929-4.399-2.929-7.071c0-2.671 1.04-5.182 2.929-7.07 1.889-1.889 4.399-2.929 7.071-2.929 2.671 0 5.182 1.04 7.07 2.929 1.889 1.889 2.93 4.399 2.93 7.07s-1.041 5.182-2.93 7.071z"/><path id="XMLID_1287_" d="m320.695 310.775c-2.63 0-5.2 1.06-7.07 2.93-1.86 1.86-2.93 4.439-2.93 7.07 0 2.63 1.069 5.21 2.93 7.069 1.87 1.86 4.44 2.931 7.07 2.931s5.21-1.07 7.069-2.931c1.87-1.859 2.931-4.439 2.931-7.069 0-2.641-1.061-5.21-2.931-7.07-1.859-1.871-4.439-2.93-7.069-2.93z"/><path id="XMLID_1288_" d="m444.325 434.394c-2.63 0-5.21 1.07-7.07 2.931-1.86 1.859-2.93 4.439-2.93 7.069 0 2.641 1.069 5.21 2.93 7.07s4.44 2.93 7.07 2.93 5.21-1.069 7.069-2.93c1.86-1.86 2.931-4.439 2.931-7.07 0-2.63-1.07-5.21-2.931-7.069-1.859-1.861-4.439-2.931-7.069-2.931z"/><path id="XMLID_1289_" d="m401.245 296.695c0 2.63 1.07 5.21 2.93 7.069 1.86 1.86 4.44 2.931 7.07 2.931s5.21-1.07 7.07-2.931c1.859-1.859 2.93-4.439 2.93-7.069s-1.07-5.21-2.93-7.07-4.44-2.93-7.07-2.93-5.21 1.069-7.07 2.93c-1.86 1.86-2.93 4.44-2.93 7.07z"/><path id="XMLID_1291_" d="m296.625 401.315c-2.64 0-5.22 1.069-7.07 2.93-1.87 1.859-2.93 4.439-2.93 7.07 0 2.64 1.06 5.21 2.93 7.069 1.86 1.87 4.44 2.931 7.07 2.931s5.2-1.061 7.07-2.931c1.859-1.859 2.93-4.439 2.93-7.069 0-2.631-1.07-5.211-2.93-7.07-1.86-1.861-4.44-2.93-7.07-2.93z"/><path id="XMLID_1312_" d="m147.554 157.554c2.641 0 5.21-1.06 7.07-2.92 1.87-1.87 2.93-4.45 2.93-7.08s-1.06-5.2-2.93-7.07c-1.86-1.86-4.43-2.93-7.07-2.93-2.63 0-5.21 1.07-7.069 2.93-1.86 1.86-2.931 4.44-2.931 7.07 0 2.64 1.07 5.21 2.931 7.08 1.859 1.86 4.439 2.92 7.069 2.92z"/></svg>